<?xml version="1.0"?>
<svg xmlns="http://www.w3.org/2000/svg" id="Outline" viewBox="0 0 512 512" width="512" height="512" fill="#fff"><path d="M488.455,376.023l-7.61-31.286q-.062-.251-.138-.5C470.03,310.076,437.867,288,398.767,288h-1.433l-25.455-61.09c-7.5-18.006-24.111-30.6-43.879-33.99V168a8,8,0,0,0-8-8H296V104a24.028,24.028,0,0,0-24-24H256V72a24.027,24.027,0,0,0-24-24H216a24.027,24.027,0,0,0-24,24v8h-8V69.042A21.065,21.065,0,0,0,162.958,48H125.042A21.065,21.065,0,0,0,104,69.042V160H80a8,8,0,0,0-8,8v24a56.063,56.063,0,0,0-56,56V416a8,8,0,0,0,8,8H86.458a47.953,47.953,0,0,0,83.084,0H326.458a47.953,47.953,0,0,0,83.084,0H488a8,8,0,0,0,8-8V384A7.994,7.994,0,0,0,488.455,376.023ZM471.983,376H448V360h20.091ZM296,183.809V176h16v16H294.559A23.9,23.9,0,0,0,296,183.809ZM317.194,208c17.629,0,33.67,10.072,39.916,25.064L380,288H248V208ZM208,72a8.009,8.009,0,0,1,8-8h16a8.009,8.009,0,0,1,8,8v8H208ZM184,96h88a8.009,8.009,0,0,1,8,8v56H184Zm0,90.767V176h96v7.809a8.009,8.009,0,0,1-8,8V192H183.315A20.969,20.969,0,0,0,184,186.767ZM232,208v80H136V208ZM152,64h10.958A5.048,5.048,0,0,1,168,69.042V160H152Zm0,112h16v10.767a5.048,5.048,0,0,1-5.042,5.042V192H152ZM120,69.042A5.048,5.048,0,0,1,125.042,64H136v96H120ZM120,176h16v16H125.042v-.191A5.048,5.048,0,0,1,120,186.767Zm-32,0h16v10.767a20.969,20.969,0,0,0,.685,5.233H88ZM32,248a40.045,40.045,0,0,1,40-40h48v80H32Zm0,112H48v16H32Zm48.679,48H32V392H80.679a47.468,47.468,0,0,0,0,16ZM128,432a32,32,0,1,1,32-32A32.036,32.036,0,0,1,128,432Zm192.679-24H175.321a47.468,47.468,0,0,0,0-16H320.679a47.468,47.468,0,0,0,0,16ZM368,432a32,32,0,1,1,32-32A32.036,32.036,0,0,1,368,432Zm0-80a48.014,48.014,0,0,0-41.542,24H169.542a47.953,47.953,0,0,0-83.084,0H64V352a8,8,0,0,0-8-8H32V304H398.767c30.444,0,54.808,15.189,64.868,40H440a8,8,0,0,0-8,8v24H409.542A48.014,48.014,0,0,0,368,352Zm112,56H415.321a47.468,47.468,0,0,0,0-16H480Z"/><path d="M24,448a8,8,0,0,0,0,16H488a8,8,0,0,0,0-16H24Z"/><path d="M272,320H256a8,8,0,0,0,0,16h16a8,8,0,0,0,0-16Z"/><path d="M160,320H144a8,8,0,0,0,0,16h16a8,8,0,0,0,0-16Z"/><circle cx="128" cy="400" r="16"/><circle cx="368" cy="400" r="16"/></svg>
