<svg height="512pt" viewBox="0 -124 512.00001 512" width="512pt" xmlns="http://www.w3.org/2000/svg" fill="#fff"><path d="m486.398438 110.933594h-51.199219c-14.136719 0-25.597657 11.460937-25.597657 25.601562v25.597656h-34.132812v-17.066406h17.066406c4.710938 0 8.53125-3.820312 8.53125-8.53125 0-4.714844-3.820312-8.535156-8.53125-8.535156h-36.59375l39.902344-17.730469.136719-.0625c.296875-.191406.582031-.398437.855469-.621093 1.164062-.511719 2.113281-1.417969 2.679687-2.5625.324219-.433594.609375-.902344.851563-1.390626.226562-.667968.367187-1.367187.417968-2.070312.125-.382812.214844-.769531.28125-1.164062v-.074219c-.050781-.546875-.160156-1.082031-.324218-1.605469-.066407-.582031-.199219-1.152344-.382813-1.707031v-.066407c-.195313-.3125-.40625-.613281-.640625-.898437-.339844-.613281-.757812-1.1875-1.238281-1.707031-.441407-.371094-.925781-.699219-1.441407-.972656-.402343-.304688-.832031-.574219-1.289062-.800782-.746094-.265625-1.527344-.421875-2.320312-.46875-.292969-.09375-.59375-.171875-.894532-.230468h-36.589844l39.898438-17.734376.136719-.058593c.296875-.191407.582031-.398438.855469-.621094 1.167968-.511719 2.113281-1.421875 2.679687-2.5625.324219-.4375.609375-.902344.851563-1.390625.226562-.671875.367187-1.367188.417968-2.074219.125-.378906.21875-.765625.285156-1.160156v-.078125c-.054687-.542969-.164062-1.082031-.324218-1.601562-.070313-.582032-.199219-1.152344-.386719-1.707032v-.070312c-.195313-.316406-.410156-.621094-.648437-.910156-.335938-.621094-.746094-1.191407-1.226563-1.707032-.46875-.402344-.980469-.75-1.527344-1.03125-.375-.28125-.773437-.53125-1.1875-.746094-.800781-.292968-1.644531-.464843-2.5-.5-.242187-.074218-.484375-.132812-.734375-.179687h-36.589844l39.902344-17.734375.136719-.058594c.296875-.191406.582031-.398437.851563-.625 1.167968-.511718 2.117187-1.417968 2.679687-2.558594.328125-.4375.613281-.902343.855469-1.390624.226562-.671876.367187-1.367188.417968-2.074219.121094-.378907.214844-.765625.28125-1.160157v-.078124c-.054687-.542969-.164062-1.082032-.324218-1.601563-.070313-.582031-.199219-1.152344-.382813-1.707031v-.070313c-.195312-.3125-.410156-.613281-.640625-.902343-.339844-.621094-.753906-1.191407-1.238281-1.707032-.890625-.617187-1.796875-1.210937-2.722656-1.777344-.769531-.28125-1.578125-.445312-2.394531-.484374-.28125 0-.523438-.164063-.804688-.164063h-17.089844v-17.105469c0-4.714844-3.824218-8.535156-8.535156-8.535156h-25.601562c-4.710938 0-8.53125 3.820312-8.53125 8.535156v17.066406h-17.066407c-4.714843 0-8.535156 3.820313-8.535156 8.53125 0 4.714844 3.820313 8.535157 8.535156 8.535157h36.589844l-39.902344 17.730469-.136719.0625c-.296874.1875-.582031.398437-.851562.621093-1.167969.511719-2.117188 1.417969-2.679688 2.558594-.328124.4375-.613281.90625-.855468 1.394531-.226563.667969-.367188 1.367188-.417969 2.070313-.121094.382812-.214844.769531-.28125 1.164062v.074219c.054687.546875.164063 1.082031.324219 1.605469.070312.582031.199218 1.152343.382812 1.707031v.066406c.40625.878906.957032 1.679688 1.632813 2.375.175781.1875.382812.324219.570312.492188.5625.5 1.1875.921875 1.859375 1.253906.265625.128906.503906.25.777344.351562.949219.378907 1.960938.585938 2.988281.605469h36.589844l-39.902344 17.730469-.136719.0625c-.296874.191406-.582031.398438-.855468.621094-1.164063.511718-2.113282 1.417968-2.679688 2.5625-.324218.4375-.609375.902344-.851562 1.390625-.226563.671875-.367188 1.367187-.417969 2.074219-.121094.378906-.214844.765624-.28125 1.160156v.078125c.054687.542969.160156 1.082031.324219 1.601562.070312.582031.199218 1.152344.382812 1.707031v.070313c.40625.875.957032 1.675781 1.628906 2.371094.179688.1875.382813.324219.574219.496093.558594.496094 1.183594.917969 1.859375 1.253907.261719.125.503906.246093.777344.347656.949219.378906 1.960938.585937 2.984375.605469h36.589844l-39.898438 17.734375-.140625.058593c-.292968.191407-.578125.398438-.851562.625-1.167969.511719-2.113282 1.417969-2.679688 2.558594-.324218.4375-.613281.902344-.855468 1.390625-.222657.671875-.363282 1.367188-.417969 2.074219-.121094.378906-.214844.765625-.28125 1.160156v.078125c.054687.542969.164062 1.082031.324219 1.601563.070312.582031.199218 1.152344.386718 1.707031v.070313c.402344.875.953125 1.679687 1.628906 2.371093.179688.1875.382813.324219.570313.496094.5625.496094 1.1875.921875 1.859375 1.253906.265625.128907.503906.246094.777344.347657.953125.382812 1.964844.585937 2.988281.609374h17.066406v17.066407h-153.601562v-17.070313h17.066406c1.015625-.015625 2.019531-.21875 2.960937-.597656.265626-.101562.523438-.21875.777344-.347656.671875-.332032 1.292969-.753906 1.851563-1.253906.195312-.171876.402343-.308594.582031-.496094.671875-.691406 1.222656-1.496094 1.628906-2.371094v-.050781c.183594-.554688.3125-1.128907.382813-1.707031.171875-.53125.289062-1.078126.351562-1.628907v-.078125c-.050781-.375-.125-.746094-.222656-1.109375-.050781-.707031-.195313-1.402343-.417969-2.074219-.242187-.488281-.527344-.953124-.855468-1.390624-.5625-1.140626-1.511719-2.046876-2.679688-2.558594-.269531-.226563-.554688-.433594-.851562-.625l-.136719-.058594-39.960938-17.785156h36.589844c1.015625-.019532 2.019531-.21875 2.960937-.597656.265626-.101563.523438-.21875.777344-.347657.671875-.332031 1.292969-.753906 1.851563-1.253906.195312-.171875.398437-.308594.578125-.496094.671875-.695312 1.222656-1.496093 1.628906-2.371093v-.050782c.1875-.554687.316406-1.128906.386719-1.707031.171875-.53125.289062-1.078125.347656-1.628906v-.078125c-.046875-.375-.121094-.746094-.222656-1.109375-.050781-.707031-.191407-1.402344-.417969-2.074219-.242188-.488281-.527344-.953125-.851562-1.390625-.566407-1.140625-1.515626-2.046875-2.679688-2.558594-.273438-.226562-.558594-.433593-.855469-.625l-.136719-.058593-39.960937-17.785157h36.589844c1.015625-.019531 2.019531-.222656 2.960937-.597656.265625-.101563.527344-.21875.777344-.347656.671875-.332031 1.296875-.753907 1.851562-1.253907.199219-.171874.402344-.308593.582032-.496093.671875-.695313 1.222656-1.496094 1.628906-2.371094v-.050781c.1875-.554688.3125-1.128906.382812-1.707032.171876-.53125.289063-1.078124.351563-1.632812v-.074219c-.046875-.375-.125-.746093-.222656-1.109375-.050781-.707031-.191407-1.402344-.417969-2.074218-.242188-.488282-.527344-.953126-.855469-1.390626-.5625-1.140624-1.511719-2.046874-2.675781-2.558593-.273438-.226563-.558594-.433594-.855469-.625l-.136719-.058594-39.960937-17.785156h36.589844c4.714843 0 8.535156-3.820313 8.535156-8.535157 0-4.710937-3.820313-8.53125-8.535156-8.53125h-17.066407v-17.066406c0-4.714844-3.820312-8.535156-8.53125-8.535156h-25.601562c-4.710938 0-8.535156 3.820312-8.535156 8.535156v17.066406h-17.066406c-.285157.042969-.570313.101563-.851563.179688-.789063.046875-1.5625.203125-2.304687.46875-.464844.242188-.902344.527344-1.3125.851562-.503907.269532-.980469.589844-1.417969.957032-.492188.53125-.910157 1.125-1.246094 1.765625-.230469.269531-.441406.554687-.632813.855469v.042968c-.183593.554688-.3125 1.125-.382812 1.707032-.160156.519531-.269531 1.058593-.324219 1.601562l-.0625.101562c.050781.375.125.746094.222657 1.109376.054687.707031.195312 1.40625.417968 2.074218.242188.488282.527344.957032.855469 1.390625.5625 1.144531 1.511719 2.050781 2.679687 2.5625.269532.222657.554688.429688.851563.621094l.136719.0625 39.960937 17.78125h-36.589843c-.34375.046875-.6875.117187-1.023438.207031-.734375.050782-1.460938.199219-2.160156.433594-1.730469.640625-3.15625 1.910156-3.992188 3.558594-.226562.269531-.433594.554687-.621094.855468v.066407c-.1875.554687-.316406 1.125-.386718 1.707031-.160156.523438-.269532 1.058594-.324219 1.605469l-.023437.101562c.046874.375.121093.746094.21875 1.109375.054687.707032.195312 1.402344.417968 2.074219.242188.488281.53125.953125.855469 1.390625.566406 1.140625 1.511719 2.046875 2.679687 2.558594.273438.222656.558594.433594.851563.625l.140625.058594 39.960938 17.785156h-36.59375c-.308594.042968-.617188.105468-.921876.1875-.773437.042968-1.535156.199218-2.269531.460937-.453125.230469-.886719.5-1.296875.808594-.507812.269531-.988281.59375-1.433594.964844-.621093.882812-1.25 1.765625-1.875 2.644531v.050781c-.1875.554688-.316406 1.128907-.382812 1.707031-.164062.523438-.269531 1.058594-.328125 1.605469l-.023437.101563c.046874.375.121093.746094.222656 1.109375.050781.707031.191406 1.402343.417968 2.074219.242188.488281.527344.953124.851563 1.390624.566406 1.140626 1.515625 2.046876 2.679687 2.558594.273438.226563.558594.433594.855469.625l.136719.058594 39.960938 17.785156h-36.589844c-4.714844 0-8.535156 3.820313-8.535156 8.53125 0 4.714844 3.820312 8.535156 8.535156 8.535156h17.066406v17.066407h-34.136719v-25.601563c0-14.136718-11.460937-25.597656-25.597656-25.597656h-51.195313c-14.140624-.003906-25.601562 11.457031-25.601562 25.597656v102.398438c0 14.140625 11.460938 25.601562 25.601562 25.601562h51.199219c14.136719 0 25.597657-11.460937 25.597657-25.601562v-25.597656h307.203124v25.597656c0 14.140625 11.460938 25.601562 25.597657 25.601562h51.199219c14.140624 0 25.601562-11.460937 25.601562-25.601562v-102.398438c0-14.140625-11.460938-25.601562-25.601562-25.601562zm-136.53125-93.867188h8.53125v8.535156h-8.53125zm0 128h8.53125v17.066406h-8.53125zm-196.265626-128h8.53125v8.535156h-8.53125zm0 128h8.53125v17.066406h-8.53125zm-76.800781 102.402344h-51.199219c-4.714843 0-8.535156-3.820312-8.535156-8.535156v-8.53125h17.066406c4.714844 0 8.535157-3.820313 8.535157-8.535156 0-4.710938-3.820313-8.53125-8.535157-8.53125h-17.066406v-17.066407h17.066406c4.714844 0 8.535157-3.824219 8.535157-8.535156s-3.820313-8.535156-8.535157-8.535156h-17.066406v-17.066407h17.066406c4.714844 0 8.535157-3.820312 8.535157-8.53125 0-4.714843-3.820313-8.535156-8.535157-8.535156h-17.066406v-8.53125c0-4.714844 3.820313-8.535156 8.535156-8.535156h51.199219c4.710938 0 8.53125 3.820312 8.53125 8.535156v8.53125h-17.066406c-4.710937 0-8.53125 3.820313-8.53125 8.535156 0 4.710938 3.820313 8.53125 8.53125 8.53125h17.066406v17.066407h-17.066406c-4.710937 0-8.53125 3.824219-8.53125 8.535156s3.820313 8.535156 8.53125 8.535156h17.066406v17.066407h-17.066406c-4.710937 0-8.53125 3.820312-8.53125 8.53125 0 4.714843 3.820313 8.535156 8.53125 8.535156h17.066406v8.53125c0 4.714844-3.820312 8.535156-8.53125 8.535156zm25.597657-51.199219v-17.070312h307.203124v17.070312zm384 51.199219h-51.199219c-4.710938 0-8.53125-3.820312-8.53125-8.535156v-8.53125h17.066406c4.710937 0 8.53125-3.820313 8.53125-8.535156 0-4.710938-3.820313-8.53125-8.53125-8.53125h-17.066406v-17.066407h17.066406c4.710937 0 8.53125-3.824219 8.53125-8.535156s-3.820313-8.535156-8.53125-8.535156h-17.066406v-17.066407h17.066406c4.710937 0 8.53125-3.820312 8.53125-8.53125 0-4.714843-3.820313-8.535156-8.53125-8.535156h-17.066406v-8.53125c0-4.714844 3.820312-8.535156 8.53125-8.535156h51.199219c4.714843 0 8.535156 3.820312 8.535156 8.535156v8.53125h-17.066406c-4.714844 0-8.535157 3.820313-8.535157 8.535156 0 4.710938 3.820313 8.53125 8.535157 8.53125h17.066406v17.066407h-17.066406c-4.714844 0-8.535157 3.824219-8.535157 8.535156s3.820313 8.535156 8.535157 8.535156h17.066406v17.066407h-17.066406c-4.714844 0-8.535157 3.820312-8.535157 8.53125 0 4.714843 3.820313 8.535156 8.535157 8.535156h17.066406v8.53125c0 4.714844-3.820313 8.535156-8.535156 8.535156zm0 0"/></svg>