<svg id="Capa_1" enable-background="new 0 0 512 512" height="512" viewBox="0 0 512 512" width="512" xmlns="http://www.w3.org/2000/svg" fill="#fff"><g><path d="m439.238 174.142h-88.462c4.149-5.439 8.631-11.506 13.133-17.936 23.489-33.55 34.908-58.676 34.908-76.814 0-43.777-35.615-79.392-79.391-79.392s-79.392 35.615-79.392 79.392c0 18.138 11.418 43.264 34.908 76.814 16.357 23.363 32.477 41.987 33.155 42.768 2.849 3.283 6.981 5.168 11.328 5.168h119.813c23.579 0 42.762 19.183 42.762 42.761 0 23.579-19.183 42.762-42.762 42.762h-89.862c-18.143-32.994-53.243-55.406-93.482-55.406s-75.338 22.412-93.481 55.406h-51.246c-61.297 0-111.167 49.869-111.167 111.168 0 61.297 49.87 111.167 111.167 111.167h143.329c.154 0 .3-.031.448-.051.316.02.631.051.949.051 4.347 0 8.479-1.885 11.328-5.167.956-1.102 23.679-27.354 46.763-60.325 32.646-46.628 48.516-81.184 48.516-105.644 0-7.257-.732-14.346-2.12-21.2h78.857c40.121 0 72.762-32.641 72.762-72.762.001-40.12-32.64-72.76-72.761-72.76zm-104.812-91.929c.363 8.101-7.154 15-15 15-8.409 0-14.636-6.873-15-15-.363-8.101 7.154-15 15-15 8.409 0 14.636 6.873 15 15zm-78.531 277.665c-8.409 0-14.636-6.873-15-15-.363-8.101 7.154-15 15-15 8.409 0 14.636 6.873 15 15 .363 8.101-7.154 15-15 15zm-225.895 40.954c0-44.756 36.412-81.167 81.167-81.167h40.241c-1.388 6.854-2.12 13.943-2.12 21.2 0 24.459 15.87 59.016 48.515 105.643 9.338 13.338 18.616 25.574 26.419 35.493h-113.055c-44.755-.001-81.167-36.413-81.167-81.169z"/></g></svg>